<?xml version="1.0" encoding="UTF-8"?>
<svg xmlns="http://www.w3.org/2000/svg" width="150" height="150" viewBox="0 0 150 150" fill="none">
  <path d="M131.992 49.7401L131.993 49.7405C132.787 50.1168 133.295 50.9191 133.295 51.8029C133.295 52.6796 132.788 53.4824 131.991 53.8621C131.991 53.8621 131.991 53.8621 131.991 53.8622L76.1727 80.3775C76.1723 80.3777 76.1719 80.3779 76.1715 80.3781C75.8592 80.5251 75.5228 80.5996 75.1893 80.5996C74.8579 80.5996 74.523 80.5255 74.2103 80.3783C74.2097 80.378 74.2091 80.3778 74.2085 80.3775L18.3994 53.8622C18.3993 53.8621 18.3992 53.8621 18.3991 53.8621C17.6022 53.4824 17.0957 52.6796 17.0957 51.8029C17.0957 50.9191 17.6037 50.1168 18.3977 49.7405L18.3986 49.74L74.2096 23.2199C74.2098 23.2198 74.21 23.2197 74.2101 23.2196C74.8289 22.9271 75.5485 22.9264 76.1714 23.2198C76.1718 23.22 76.1722 23.2202 76.1726 23.2204L131.992 49.7401Z" fill="#1C274C" stroke="#56C5C0" stroke-width="2"></path>
  <path d="M75.1868 96.94L74.7577 96.7361L20.8269 71.1116C20.8267 71.1115 20.8265 71.1114 20.8262 71.1113C19.1369 70.3122 17.1263 71.0299 16.327 72.7121L75.1868 96.94ZM75.1868 96.94L75.6159 96.7362M75.1868 96.94L75.6159 96.7362M75.6159 96.7362L129.563 71.111L129.563 71.1107M75.6159 96.7362L129.563 71.1107M129.563 71.1107C131.243 70.3115 133.259 71.0259 134.059 72.7119L134.059 72.7123M129.563 71.1107L134.059 72.7123M134.059 72.7123C134.859 74.3972 134.144 76.4079 132.458 77.2087L132.457 77.2088M134.059 72.7123L132.457 77.2088M132.457 77.2088L76.6404 103.726C76.6402 103.726 76.6401 103.726 76.6399 103.726C76.1808 103.943 75.685 104.051 75.1895 104.051C74.6936 104.051 74.1996 103.944 73.7387 103.727M132.457 77.2088L73.7387 103.727M73.7387 103.727C73.7383 103.726 73.7378 103.726 73.7374 103.726M73.7387 103.727L73.7374 103.726M73.7374 103.726L17.9285 77.2089C17.9285 77.2088 17.9284 77.2088 17.9284 77.2088C16.2439 76.408 15.5284 74.3958 16.3267 72.7125L73.7374 103.726Z" fill="#45596B" stroke="#56C5C0" stroke-width="2"></path>
  <path d="M17.9281 99.572L17.9284 99.5721L73.7374 126.088C73.7377 126.088 73.738 126.088 73.7383 126.088C74.1993 126.306 74.6935 126.414 75.1895 126.414C75.6862 126.414 76.1812 126.306 76.6381 126.089L17.9281 99.572ZM17.9281 99.572C16.2447 98.7728 15.5278 96.757 16.3271 95.0712C17.1261 93.386 19.136 92.6701 20.8259 93.4705C20.8261 93.4706 20.8263 93.4707 20.8265 93.4708L74.7577 119.094L75.1868 119.298L75.6159 119.094L129.564 93.4704L129.135 92.5671L129.564 93.4703C131.248 92.6705 133.26 93.3853 134.06 95.0713L134.06 95.0717C134.86 96.7574 134.145 98.7719 132.461 99.5722L76.6387 126.089L17.9281 99.572Z" fill="#45596B" stroke="#56C5C0" stroke-width="2"></path>
</svg>
