<?xml version="1.0" encoding="UTF-8"?>
<svg xmlns="http://www.w3.org/2000/svg" width="150" height="150" viewBox="0 0 150 150" fill="none">
  <path d="M90.9744 131.526C89.6241 131.526 88.3738 130.752 87.7237 129.565C87.0736 128.326 87.0736 126.882 87.7737 125.643L93.0248 116.613C94.075 114.755 96.4255 114.188 98.1758 115.271C99.9762 116.355 100.526 118.729 99.4761 120.586L98.1258 122.908C111.929 119.554 122.281 106.757 122.281 91.4833C122.281 89.3677 123.981 87.6133 126.031 87.6133C128.082 87.6133 129.782 89.3677 129.782 91.4833C129.732 113.568 112.329 131.526 90.9744 131.526Z" fill="#1C274C" stroke="#56C5C0" stroke-width="2"></path>
  <path d="M23.7552 62.9123C21.7023 62.9123 20 61.1558 20 59.0377C20 36.9782 37.424 19 58.8035 19C60.1553 19 61.4071 19.7749 62.058 20.9631C62.7089 22.203 62.7089 23.6495 62.0079 24.8894L56.7506 33.9302C55.6992 35.7383 53.396 36.3583 51.5935 35.2217C49.8411 34.1368 49.2403 31.7604 50.3418 29.9006L51.6937 27.5758C37.8246 30.9338 27.5103 43.7459 27.5103 59.0377C27.5103 61.1558 25.808 62.9123 23.7552 62.9123Z" fill="#272E64" stroke="#56C5C0" stroke-width="2"></path>
  <path d="M88.6131 78.8315V93.6519C88.6131 106.002 83.8102 110.942 71.8029 110.942H57.3942C45.3869 110.942 40.584 106.002 40.584 93.6519V78.8315C40.584 66.4812 45.3869 61.541 57.3942 61.541H71.8029C83.8102 61.541 88.6131 66.4812 88.6131 78.8315Z" fill="#1C274C" stroke="#56C5C0" stroke-width="2"></path>
  <path d="M92.4013 39.584H77.9632C66.1278 39.584 61.3153 44.4332 61.168 56.3542H71.7754C86.2135 56.3542 92.8924 63.2744 92.8924 78.0746V88.9853C104.531 88.8338 109.197 83.8836 109.197 71.71V56.9098C109.246 44.5342 104.433 39.584 92.4013 39.584Z" fill="#406A84" stroke="#56C5C0" stroke-width="2"></path>
</svg>
