<?xml version="1.0" encoding="UTF-8"?>
<svg xmlns="http://www.w3.org/2000/svg" width="150" height="150" viewBox="0 0 150 150" fill="none">
  <path opacity="0.5" d="M74.7832 20.0259C78.7766 20.2323 82.9703 21.6789 91.0995 24.5052L94.2956 25.6164C102.696 28.5371 108.954 30.7134 113.379 32.5391C115.59 33.4515 117.31 34.2633 118.596 35.0214C119.895 35.7877 120.667 36.4525 121.072 37.0377C121.48 37.6282 121.842 38.603 122.13 40.1169C122.414 41.614 122.608 43.5476 122.739 45.9858C123 50.864 123.001 57.6271 123.001 66.7007V75.6252C123.001 106.969 99.8282 122.221 85.1029 128.755C83.0757 129.654 81.6417 130.288 80.0175 130.71C78.6085 131.077 77.027 131.29 74.7832 131.338V20.0259Z" fill="#406A84" stroke="#56C5C0" stroke-width="2"></path>
  <path d="M73.2168 20.0259C69.2234 20.2323 65.0297 21.6789 56.9005 24.5052L53.7044 25.6164C45.3039 28.5371 39.0457 30.7134 34.6212 32.5391C32.4099 33.4515 30.6895 34.2633 29.4043 35.0214C28.1053 35.7877 27.3328 36.4525 26.9285 37.0377C26.5204 37.6282 26.1577 38.603 25.8705 40.1169C25.5865 41.614 25.392 43.5476 25.2613 45.9858C24.9998 50.864 24.9994 57.6271 24.9994 66.7007V75.6252C24.9994 106.969 48.1718 122.221 62.8971 128.755C64.9243 129.654 66.3583 130.288 67.9825 130.71C69.3915 131.077 70.973 131.29 73.2168 131.338V20.0259Z" fill="#1C274C" stroke="#56C5C0" stroke-width="2"></path>
</svg>
