<?xml version="1.0" encoding="UTF-8"?>
<svg xmlns="http://www.w3.org/2000/svg" width="150" height="150" viewBox="0 0 150 150" fill="none">
  <path d="M80.9939 29.1569H79.9939V30.1569V41.3139C79.9939 42.5282 79.5115 43.6927 78.6529 44.5513C77.7943 45.41 76.6297 45.8923 75.4154 45.8923C74.2012 45.8923 73.0366 45.41 72.178 44.5513C71.3193 43.6927 70.837 42.5282 70.837 41.3139V30.1569V29.1569H69.837H58.68C57.4657 29.1569 56.3012 28.6746 55.4426 27.8159C54.5839 26.9573 54.1016 25.7928 54.1016 24.5785C54.1016 23.3642 54.5839 22.1996 55.4426 21.341C56.3012 20.4824 57.4657 20 58.68 20H92.1509C93.3651 20 94.5297 20.4824 95.3883 21.341C96.2469 22.1996 96.7293 23.3642 96.7293 24.5785C96.7293 25.7928 96.2469 26.9573 95.3883 27.8159C94.5297 28.6746 93.3651 29.1569 92.1509 29.1569H80.9939Z" fill="#406A84" stroke="#56C5C0" stroke-width="2"></path>
  <path d="M121.834 83.1514C121.834 108.787 101.052 129.568 75.417 129.568C49.7816 129.568 29 108.787 29 83.1514C29 57.516 49.7816 36.7344 75.417 36.7344C101.052 36.7344 121.834 57.516 121.834 83.1514Z" fill="#1C274C" stroke="#56C5C0" stroke-width="2"></path>
  <path d="M74.4185 84.9392H51.5076C51.2869 81.8722 51.6536 78.7883 52.5909 75.8539C53.6191 72.6351 55.3111 69.6677 57.5576 67.1436C59.8041 64.6194 62.5551 62.5946 65.6329 61.2C68.4044 59.9441 71.3854 59.2243 74.4185 59.0753V84.9392Z" fill="#406A84" stroke="#56C5C0" stroke-width="2"></path>
</svg>
