<?xml version="1.0" encoding="UTF-8"?>
<svg xmlns="http://www.w3.org/2000/svg" width="150" height="150" viewBox="0 0 150 150" fill="none">
  <path fill-rule="evenodd" clip-rule="evenodd" d="M66.8636 129.275L68.2345 126.889C70.4313 123.066 71.5297 121.154 73.2794 120.088C75.0296 119.022 77.3116 118.946 81.8766 118.796C86.157 118.655 89.034 118.27 91.4934 117.221C96.6723 115.011 100.787 110.772 102.932 105.438C104.541 101.436 104.541 96.3641 104.541 86.2192V81.8647C104.541 67.6106 104.541 60.4836 101.426 55.2479C99.6834 52.3183 97.2923 49.8552 94.4487 48.06C89.3664 44.8516 82.4477 44.8516 68.6108 44.8516H55.9298C42.0929 44.8516 35.1744 44.8516 30.0921 48.06C27.2482 49.8552 24.8572 52.3183 23.1145 55.2479C20 60.4836 20 67.6106 20 81.8647V86.2192C20 96.3641 20 101.436 21.6088 105.438C23.7539 110.772 27.8684 115.011 33.0471 117.221C35.5068 118.27 38.3835 118.655 42.6638 118.796C47.2287 118.946 49.5111 119.022 51.2609 120.088C53.0107 121.154 54.1091 123.066 56.3061 126.889L57.6768 129.275C59.7192 132.83 64.8213 132.83 66.8636 129.275ZM80.7638 88.3964C83.6816 88.3964 86.0473 85.9594 86.0473 82.953C86.0473 79.9472 83.6816 77.5101 80.7638 77.5101C77.8454 77.5101 75.4797 79.9472 75.4797 82.953C75.4797 85.9594 77.8454 88.3964 80.7638 88.3964ZM67.5543 82.953C67.5543 85.9594 65.1886 88.3964 62.2703 88.3964C59.3522 88.3964 56.9866 85.9594 56.9866 82.953C56.9866 79.9472 59.3522 77.5101 62.2703 77.5101C65.1886 77.5101 67.5543 79.9472 67.5543 82.953ZM43.777 88.3964C46.6952 88.3964 49.0609 85.9594 49.0609 82.953C49.0609 79.9472 46.6952 77.5101 43.777 77.5101C40.8589 77.5101 38.4933 79.9472 38.4933 82.953C38.4933 85.9594 40.8589 88.3964 43.777 88.3964Z" fill="#1C274C" stroke="#56C5C0" stroke-width="2"></path>
  <path d="M92.1897 19C98.5034 19 103.524 18.9999 107.551 19.3943C111.679 19.7987 115.17 20.6464 118.28 22.6094C121.479 24.6291 124.169 27.4001 126.129 30.696C128.035 33.8994 128.858 37.4954 129.251 41.7486C129.633 45.8965 129.633 51.0689 129.633 57.5727V62.0148C129.633 66.6435 129.633 70.3255 129.435 73.3108C129.233 76.3655 128.811 78.9878 127.823 81.4439C125.41 87.4458 120.782 92.2141 114.955 94.6999C114.81 94.7621 114.663 94.8221 114.516 94.8801C113.813 95.1568 113.21 95.3945 112.681 95.5711H104.458C104.539 93.0094 104.539 89.9583 104.539 86.2173V81.8628C104.539 67.6087 104.539 60.4817 101.424 55.2461C99.681 52.3164 97.2899 49.8533 94.4463 48.0581C89.364 44.8497 82.4454 44.8497 68.6085 44.8497H55.9274C51.0166 44.8497 46.9772 44.8497 43.582 44.9931V36.5202C43.745 35.9383 43.9684 35.2712 44.2305 34.4883C44.6764 33.1566 45.2399 31.8972 45.9545 30.696C47.9151 27.4001 50.6049 24.6291 53.8043 22.6094C56.9139 20.6464 60.4047 19.7987 64.5334 19.3943C68.5601 18.9999 73.5806 19 79.8943 19H92.1897Z" fill="#56C5C0" fill-opacity="0.5" stroke="#56C5C0" stroke-width="2"></path>
</svg>
